<?xml version="1.0" encoding="UTF-8" standalone="no"?>
<!DOCTYPE svg PUBLIC "-//W3C//DTD SVG 1.1//EN" "http://www.w3.org/Graphics/SVG/1.1/DTD/svg11.dtd">
<svg version="1.1" xmlns="http://www.w3.org/2000/svg" xmlns:xlink="http://www.w3.org/1999/xlink" preserveAspectRatio="xMidYMid meet" viewBox="0 0 640 640" width="640" height="640"><defs><path d="M396.56 562.12C362.23 596.45 314.8 617.69 262.4 617.69C157.65 617.69 72.71 532.73 72.71 427.99C72.71 375.59 93.94 328.16 128.27 293.83" id="b9jGw1SXt"></path><path d="M567.29 519.72L488.14 519.72L443.53 395.95L255.78 395.95L255.78 159.98" id="f1KnG1icbL"></path><path d="M431.74 251.15L255.78 251.15" id="aPsdTnLfz"></path><path d="M256.62 109.89C226.69 109.89 202.42 85.63 202.42 55.67C202.43 25.77 226.69 1.49 256.63 1.49C286.56 1.49 310.83 25.77 310.83 55.67C310.83 85.63 286.56 109.89 256.62 109.89Z" id="b3LanzpbVQ"></path></defs><g><g><g><use xlink:href="#b9jGw1SXt" opacity="1" fill="#000000" fill-opacity="0"></use><g><use xlink:href="#b9jGw1SXt" opacity="1" fill-opacity="0" stroke="#ffffff" stroke-width="15" stroke-opacity="1"></use></g></g><g><use xlink:href="#f1KnG1icbL" opacity="1" fill="#000000" fill-opacity="0"></use><g><use xlink:href="#f1KnG1icbL" opacity="1" fill-opacity="0" stroke="#ffffff" stroke-width="15" stroke-opacity="1"></use></g></g><g><use xlink:href="#aPsdTnLfz" opacity="1" fill="#000000" fill-opacity="0"></use><g><use xlink:href="#aPsdTnLfz" opacity="1" fill-opacity="0" stroke="#ffffff" stroke-width="15" stroke-opacity="1"></use></g></g><g><use xlink:href="#b3LanzpbVQ" opacity="1" fill="#ffffff" fill-opacity="1"></use><g><use xlink:href="#b3LanzpbVQ" opacity="1" fill-opacity="0" stroke="#ffffff" stroke-width="1" stroke-opacity="1"></use></g></g></g></g></svg>