<?xml version="1.0" encoding="UTF-8" standalone="no"?>
<!DOCTYPE svg PUBLIC "-//W3C//DTD SVG 1.1//EN" "http://www.w3.org/Graphics/SVG/1.1/DTD/svg11.dtd">
<svg version="1.1" xmlns="http://www.w3.org/2000/svg" xmlns:xlink="http://www.w3.org/1999/xlink" preserveAspectRatio="xMidYMid meet" viewBox="0 0 640 640" width="640" height="640"><defs><path d="M620.43 188.36C620.43 188.36 620.43 188.36 620.43 188.36C620.43 346.33 620.43 434.09 620.43 451.64C620.43 451.64 620.43 451.64 620.43 451.64C304.5 451.64 128.99 451.64 93.88 451.64C93.88 451.64 93.88 451.64 93.88 451.64C93.88 293.67 93.88 205.91 93.88 188.36C93.88 188.36 93.88 188.36 93.88 188.36C409.81 188.36 585.32 188.36 620.43 188.36Z" id="f2HIcewHHJ"></path><path d="M542.79 265.99C542.79 265.99 542.79 265.99 542.79 265.99C542.79 330.81 542.79 366.81 542.79 374.02C542.79 374.02 542.79 374.02 542.79 374.02C499.97 374.02 476.18 374.02 471.42 374.02C471.42 374.02 471.42 374.02 471.42 374.02C471.42 309.2 471.42 273.19 471.42 265.99C471.42 265.99 471.42 265.99 471.42 265.99C514.24 265.99 538.03 265.99 542.79 265.99Z" id="a4Ecihj5t2"></path><path d="M242.87 265.99C242.87 265.99 242.87 265.99 242.87 265.99C242.87 330.81 242.87 366.81 242.87 374.02C242.87 374.02 242.87 374.02 242.87 374.02C200.06 374.02 176.27 374.02 171.51 374.02C171.51 374.02 171.51 374.02 171.51 374.02C171.51 309.2 171.51 273.19 171.51 265.99C171.51 265.99 171.51 265.99 171.51 265.99C214.33 265.99 238.11 265.99 242.87 265.99Z" id="d1UwjPIg1q"></path><path d="M342.84 265.99C342.84 265.99 342.84 265.99 342.84 265.99C342.84 330.81 342.84 366.81 342.84 374.02C342.84 374.02 342.84 374.02 342.84 374.02C300.03 374.02 276.24 374.02 271.48 374.02C271.48 374.02 271.48 374.02 271.48 374.02C271.48 309.2 271.48 273.19 271.48 265.99C271.48 265.99 271.48 265.99 271.48 265.99C314.3 265.99 338.09 265.99 342.84 265.99Z" id="d9vJYsYDj"></path><path d="M442.82 265.99C442.82 265.99 442.82 265.99 442.82 265.99C442.82 330.81 442.82 366.81 442.82 374.02C442.82 374.02 442.82 374.02 442.82 374.02C400 374.02 376.21 374.02 371.45 374.02C371.45 374.02 371.45 374.02 371.45 374.02C371.45 309.2 371.45 273.19 371.45 265.99C371.45 265.99 371.45 265.99 371.45 265.99C414.27 265.99 438.06 265.99 442.82 265.99Z" id="b29CGuztx2"></path><path d="M19.57 254.12L19.57 385.88" id="a7Q38yuLG"></path></defs><g><g><g><use xlink:href="#f2HIcewHHJ" opacity="1" fill="#000000" fill-opacity="0"></use><g><use xlink:href="#f2HIcewHHJ" opacity="1" fill-opacity="0" stroke="#ffffff" stroke-width="15" stroke-opacity="1"></use></g></g><g><use xlink:href="#a4Ecihj5t2" opacity="1" fill="#ffffff" fill-opacity="1"></use><g><use xlink:href="#a4Ecihj5t2" opacity="1" fill-opacity="0" stroke="#ffffff" stroke-width="1" stroke-opacity="1"></use></g></g><g><use xlink:href="#d1UwjPIg1q" opacity="1" fill="#ffffff" fill-opacity="1"></use><g><use xlink:href="#d1UwjPIg1q" opacity="1" fill-opacity="0" stroke="#ffffff" stroke-width="1" stroke-opacity="1"></use></g></g><g><use xlink:href="#d9vJYsYDj" opacity="1" fill="#ffffff" fill-opacity="1"></use><g><use xlink:href="#d9vJYsYDj" opacity="1" fill-opacity="0" stroke="#ffffff" stroke-width="1" stroke-opacity="1"></use></g></g><g><use xlink:href="#b29CGuztx2" opacity="1" fill="#ffffff" fill-opacity="1"></use><g><use xlink:href="#b29CGuztx2" opacity="1" fill-opacity="0" stroke="#ffffff" stroke-width="1" stroke-opacity="1"></use></g></g><g><use xlink:href="#a7Q38yuLG" opacity="1" fill="#000000" fill-opacity="0"></use><g><use xlink:href="#a7Q38yuLG" opacity="1" fill-opacity="0" stroke="#ffffff" stroke-width="15" stroke-opacity="1"></use></g></g></g></g></svg>